<?xml version="1.0" encoding="UTF-8" standalone="no"?>
<!DOCTYPE svg PUBLIC "-//W3C//DTD SVG 1.1//EN"
 "http://www.w3.org/Graphics/SVG/1.1/DTD/svg11.dtd">
<!-- Generated by graphviz version 2.43.0 (0)
 -->
<!-- Title: src/espNowGateway.h Pages: 1 -->
<svg width="380pt" height="140pt"
 viewBox="0.00 0.00 379.50 140.00" xmlns="http://www.w3.org/2000/svg" xmlns:xlink="http://www.w3.org/1999/xlink">
<g id="graph0" class="graph" transform="scale(1 1) rotate(0) translate(4 136)">
<title>src/espNowGateway.h</title>
<polygon fill="white" stroke="transparent" points="-4,4 -4,-136 375.5,-136 375.5,4 -4,4"/>
<!-- Node1 -->
<g id="node1" class="node">
<title>Node1</title>
<g id="a_node1"><a xlink:title=" ">
<polygon fill="#bfbfbf" stroke="black" points="131,-112.5 131,-131.5 255,-131.5 255,-112.5 131,-112.5"/>
<text text-anchor="middle" x="193" y="-119.5" font-family="Helvetica,sans-Serif" font-size="10.00">src/espNowGateway.h</text>
</a>
</g>
</g>
<!-- Node2 -->
<g id="node2" class="node">
<title>Node2</title>
<g id="a_node2"><a xlink:href="_client_8h.html" target="_top" xlink:title=" ">
<polygon fill="white" stroke="black" points="127,-56.5 127,-75.5 181,-75.5 181,-56.5 127,-56.5"/>
<text text-anchor="middle" x="154" y="-63.5" font-family="Helvetica,sans-Serif" font-size="10.00">Client.h</text>
</a>
</g>
</g>
<!-- Node1&#45;&gt;Node2 -->
<g id="edge1" class="edge">
<title>Node1&#45;&gt;Node2</title>
<path fill="none" stroke="midnightblue" d="M186.56,-112.08C181.05,-104.46 172.97,-93.26 166.24,-83.94"/>
<polygon fill="midnightblue" stroke="midnightblue" points="169.01,-81.81 160.32,-75.75 163.34,-85.91 169.01,-81.81"/>
</g>
<!-- Node7 -->
<g id="node7" class="node">
<title>Node7</title>
<g id="a_node7"><a xlink:href="_gateway_8h.html" target="_top" xlink:title=" ">
<polygon fill="white" stroke="black" points="199,-56.5 199,-75.5 267,-75.5 267,-56.5 199,-56.5"/>
<text text-anchor="middle" x="233" y="-63.5" font-family="Helvetica,sans-Serif" font-size="10.00">Gateway.h</text>
</a>
</g>
</g>
<!-- Node1&#45;&gt;Node7 -->
<g id="edge6" class="edge">
<title>Node1&#45;&gt;Node7</title>
<path fill="none" stroke="midnightblue" d="M199.61,-112.08C205.26,-104.46 213.54,-93.26 220.45,-83.94"/>
<polygon fill="midnightblue" stroke="midnightblue" points="223.38,-85.87 226.52,-75.75 217.75,-81.7 223.38,-85.87"/>
</g>
<!-- Node3 -->
<g id="node3" class="node">
<title>Node3</title>
<g id="a_node3"><a xlink:title=" ">
<polygon fill="white" stroke="#bfbfbf" points="207.5,-0.5 207.5,-19.5 270.5,-19.5 270.5,-0.5 207.5,-0.5"/>
<text text-anchor="middle" x="239" y="-7.5" font-family="Helvetica,sans-Serif" font-size="10.00">Arduino.h</text>
</a>
</g>
</g>
<!-- Node2&#45;&gt;Node3 -->
<g id="edge2" class="edge">
<title>Node2&#45;&gt;Node3</title>
<path fill="none" stroke="midnightblue" d="M167.66,-56.32C180.92,-47.9 201.27,-34.97 216.85,-25.07"/>
<polygon fill="midnightblue" stroke="midnightblue" points="218.81,-27.97 225.38,-19.65 215.06,-22.06 218.81,-27.97"/>
</g>
<!-- Node4 -->
<g id="node4" class="node">
<title>Node4</title>
<g id="a_node4"><a xlink:title=" ">
<polygon fill="white" stroke="#bfbfbf" points="288.5,-0.5 288.5,-19.5 371.5,-19.5 371.5,-0.5 288.5,-0.5"/>
<text text-anchor="middle" x="330" y="-7.5" font-family="Helvetica,sans-Serif" font-size="10.00">WifiEspNow.h</text>
</a>
</g>
</g>
<!-- Node2&#45;&gt;Node4 -->
<g id="edge3" class="edge">
<title>Node2&#45;&gt;Node4</title>
<path fill="none" stroke="midnightblue" d="M181.11,-56.68C210.91,-47.54 258.98,-32.79 292.41,-22.53"/>
<polygon fill="midnightblue" stroke="midnightblue" points="293.74,-25.79 302.27,-19.51 291.69,-19.09 293.74,-25.79"/>
</g>
<!-- Node5 -->
<g id="node5" class="node">
<title>Node5</title>
<g id="a_node5"><a xlink:title=" ">
<polygon fill="white" stroke="#bfbfbf" points="0,-0.5 0,-19.5 88,-19.5 88,-0.5 0,-0.5"/>
<text text-anchor="middle" x="44" y="-7.5" font-family="Helvetica,sans-Serif" font-size="10.00">freeRTOS_pp.h</text>
</a>
</g>
</g>
<!-- Node2&#45;&gt;Node5 -->
<g id="edge4" class="edge">
<title>Node2&#45;&gt;Node5</title>
<path fill="none" stroke="midnightblue" d="M136.33,-56.32C118.61,-47.62 91.1,-34.12 70.71,-24.11"/>
<polygon fill="midnightblue" stroke="midnightblue" points="72.15,-20.92 61.63,-19.65 69.06,-27.2 72.15,-20.92"/>
</g>
<!-- Node6 -->
<g id="node6" class="node">
<title>Node6</title>
<g id="a_node6"><a xlink:title=" ">
<polygon fill="white" stroke="#bfbfbf" points="106.5,-0.5 106.5,-19.5 189.5,-19.5 189.5,-0.5 106.5,-0.5"/>
<text text-anchor="middle" x="148" y="-7.5" font-family="Helvetica,sans-Serif" font-size="10.00">ArduinoJson.h</text>
</a>
</g>
</g>
<!-- Node2&#45;&gt;Node6 -->
<g id="edge5" class="edge">
<title>Node2&#45;&gt;Node6</title>
<path fill="none" stroke="midnightblue" d="M153.01,-56.08C152.21,-48.93 151.07,-38.64 150.08,-29.69"/>
<polygon fill="midnightblue" stroke="midnightblue" points="153.56,-29.3 148.97,-19.75 146.6,-30.08 153.56,-29.3"/>
</g>
<!-- Node7&#45;&gt;Node3 -->
<g id="edge7" class="edge">
<title>Node7&#45;&gt;Node3</title>
<path fill="none" stroke="midnightblue" d="M233.99,-56.08C234.79,-48.93 235.93,-38.64 236.92,-29.69"/>
<polygon fill="midnightblue" stroke="midnightblue" points="240.4,-30.08 238.03,-19.75 233.44,-29.3 240.4,-30.08"/>
</g>
<!-- Node7&#45;&gt;Node4 -->
<g id="edge9" class="edge">
<title>Node7&#45;&gt;Node4</title>
<path fill="none" stroke="midnightblue" d="M248.58,-56.32C264,-47.74 287.81,-34.49 305.71,-24.52"/>
<polygon fill="midnightblue" stroke="midnightblue" points="307.42,-27.58 314.45,-19.65 304.01,-21.46 307.42,-27.58"/>
</g>
<!-- Node7&#45;&gt;Node5 -->
<g id="edge8" class="edge">
<title>Node7&#45;&gt;Node5</title>
<path fill="none" stroke="midnightblue" d="M203.05,-56.44C170.84,-47.24 119.47,-32.56 83.86,-22.39"/>
<polygon fill="midnightblue" stroke="midnightblue" points="84.38,-18.9 73.81,-19.52 82.46,-25.63 84.38,-18.9"/>
</g>
<!-- Node7&#45;&gt;Node6 -->
<g id="edge10" class="edge">
<title>Node7&#45;&gt;Node6</title>
<path fill="none" stroke="midnightblue" d="M219.34,-56.32C206.08,-47.9 185.73,-34.97 170.15,-25.07"/>
<polygon fill="midnightblue" stroke="midnightblue" points="171.94,-22.06 161.62,-19.65 168.19,-27.97 171.94,-22.06"/>
</g>
</g>
</svg>
