<?xml version="1.0" encoding="UTF-8" standalone="no"?>
<!DOCTYPE svg PUBLIC "-//W3C//DTD SVG 1.1//EN"
 "http://www.w3.org/Graphics/SVG/1.1/DTD/svg11.dtd">
<!-- Generated by graphviz version 2.43.0 (0)
 -->
<!-- Title: src/io_gateway.h Pages: 1 -->
<svg width="512pt" height="140pt"
 viewBox="0.00 0.00 511.50 140.00" xmlns="http://www.w3.org/2000/svg" xmlns:xlink="http://www.w3.org/1999/xlink">
<g id="graph0" class="graph" transform="scale(1 1) rotate(0) translate(4 136)">
<title>src/io_gateway.h</title>
<polygon fill="white" stroke="transparent" points="-4,4 -4,-136 507.5,-136 507.5,4 -4,4"/>
<!-- Node1 -->
<g id="node1" class="node">
<title>Node1</title>
<g id="a_node1"><a xlink:title=" ">
<polygon fill="#bfbfbf" stroke="black" points="175.5,-112.5 175.5,-131.5 273.5,-131.5 273.5,-112.5 175.5,-112.5"/>
<text text-anchor="middle" x="224.5" y="-119.5" font-family="Helvetica,sans-Serif" font-size="10.00">src/io_gateway.h</text>
</a>
</g>
</g>
<!-- Node2 -->
<g id="node2" class="node">
<title>Node2</title>
<g id="a_node2"><a xlink:href="_esp_now_client_8h.html" target="_top" xlink:title=" ">
<polygon fill="white" stroke="black" points="119,-56.5 119,-75.5 212,-75.5 212,-56.5 119,-56.5"/>
<text text-anchor="middle" x="165.5" y="-63.5" font-family="Helvetica,sans-Serif" font-size="10.00">EspNowClient.h</text>
</a>
</g>
</g>
<!-- Node1&#45;&gt;Node2 -->
<g id="edge1" class="edge">
<title>Node1&#45;&gt;Node2</title>
<path fill="none" stroke="midnightblue" d="M215.02,-112.32C206.3,-104.34 193.16,-92.31 182.6,-82.65"/>
<polygon fill="midnightblue" stroke="midnightblue" points="184.89,-80 175.15,-75.83 180.17,-85.17 184.89,-80"/>
</g>
<!-- Node7 -->
<g id="node7" class="node">
<title>Node7</title>
<g id="a_node7"><a xlink:href="esp_now_gateway_8h.html" target="_top" xlink:title=" ">
<polygon fill="white" stroke="black" points="230,-56.5 230,-75.5 337,-75.5 337,-56.5 230,-56.5"/>
<text text-anchor="middle" x="283.5" y="-63.5" font-family="Helvetica,sans-Serif" font-size="10.00">EspNowGateway.h</text>
</a>
</g>
</g>
<!-- Node1&#45;&gt;Node7 -->
<g id="edge6" class="edge">
<title>Node1&#45;&gt;Node7</title>
<path fill="none" stroke="midnightblue" d="M233.98,-112.32C242.7,-104.34 255.84,-92.31 266.4,-82.65"/>
<polygon fill="midnightblue" stroke="midnightblue" points="268.83,-85.17 273.85,-75.83 264.11,-80 268.83,-85.17"/>
</g>
<!-- Node3 -->
<g id="node3" class="node">
<title>Node3</title>
<g id="a_node3"><a xlink:title=" ">
<polygon fill="white" stroke="#bfbfbf" points="0,-0.5 0,-19.5 63,-19.5 63,-0.5 0,-0.5"/>
<text text-anchor="middle" x="31.5" y="-7.5" font-family="Helvetica,sans-Serif" font-size="10.00">Arduino.h</text>
</a>
</g>
</g>
<!-- Node2&#45;&gt;Node3 -->
<g id="edge2" class="edge">
<title>Node2&#45;&gt;Node3</title>
<path fill="none" stroke="midnightblue" d="M144.27,-56.44C122.12,-47.52 87.18,-33.44 62.06,-23.32"/>
<polygon fill="midnightblue" stroke="midnightblue" points="63.22,-20.01 52.63,-19.52 60.6,-26.5 63.22,-20.01"/>
</g>
<!-- Node4 -->
<g id="node4" class="node">
<title>Node4</title>
<g id="a_node4"><a xlink:title=" ">
<polygon fill="white" stroke="#bfbfbf" points="81,-0.5 81,-19.5 164,-19.5 164,-0.5 81,-0.5"/>
<text text-anchor="middle" x="122.5" y="-7.5" font-family="Helvetica,sans-Serif" font-size="10.00">ArduinoJson.h</text>
</a>
</g>
</g>
<!-- Node2&#45;&gt;Node4 -->
<g id="edge3" class="edge">
<title>Node2&#45;&gt;Node4</title>
<path fill="none" stroke="midnightblue" d="M158.4,-56.08C152.26,-48.38 143.23,-37.03 135.76,-27.65"/>
<polygon fill="midnightblue" stroke="midnightblue" points="138.44,-25.39 129.47,-19.75 132.96,-29.75 138.44,-25.39"/>
</g>
<!-- Node5 -->
<g id="node5" class="node">
<title>Node5</title>
<g id="a_node5"><a xlink:title=" ">
<polygon fill="white" stroke="#bfbfbf" points="182,-0.5 182,-19.5 265,-19.5 265,-0.5 182,-0.5"/>
<text text-anchor="middle" x="223.5" y="-7.5" font-family="Helvetica,sans-Serif" font-size="10.00">WifiEspNow.h</text>
</a>
</g>
</g>
<!-- Node2&#45;&gt;Node5 -->
<g id="edge4" class="edge">
<title>Node2&#45;&gt;Node5</title>
<path fill="none" stroke="midnightblue" d="M174.82,-56.32C183.39,-48.34 196.31,-36.31 206.69,-26.65"/>
<polygon fill="midnightblue" stroke="midnightblue" points="209.08,-29.21 214.01,-19.83 204.31,-24.09 209.08,-29.21"/>
</g>
<!-- Node6 -->
<g id="node6" class="node">
<title>Node6</title>
<g id="a_node6"><a xlink:title=" ">
<polygon fill="white" stroke="#bfbfbf" points="283.5,-0.5 283.5,-19.5 371.5,-19.5 371.5,-0.5 283.5,-0.5"/>
<text text-anchor="middle" x="327.5" y="-7.5" font-family="Helvetica,sans-Serif" font-size="10.00">freeRTOS_pp.h</text>
</a>
</g>
</g>
<!-- Node2&#45;&gt;Node6 -->
<g id="edge5" class="edge">
<title>Node2&#45;&gt;Node6</title>
<path fill="none" stroke="midnightblue" d="M191.17,-56.44C218.42,-47.36 261.68,-32.94 292.15,-22.78"/>
<polygon fill="midnightblue" stroke="midnightblue" points="293.57,-26 301.95,-19.52 291.36,-19.36 293.57,-26"/>
</g>
<!-- Node7&#45;&gt;Node3 -->
<g id="edge7" class="edge">
<title>Node7&#45;&gt;Node3</title>
<path fill="none" stroke="midnightblue" d="M242.43,-56.44C201.79,-47.93 137.52,-34.38 73.26,-20.37"/>
<polygon fill="midnightblue" stroke="midnightblue" points="73.89,-16.92 63.37,-18.21 72.39,-23.76 73.89,-16.92"/>
</g>
<!-- Node7&#45;&gt;Node4 -->
<g id="edge10" class="edge">
<title>Node7&#45;&gt;Node4</title>
<path fill="none" stroke="midnightblue" d="M257.99,-56.44C230.9,-47.36 187.91,-32.94 157.63,-22.78"/>
<polygon fill="midnightblue" stroke="midnightblue" points="158.49,-19.38 147.89,-19.52 156.26,-26.01 158.49,-19.38"/>
</g>
<!-- Node7&#45;&gt;Node5 -->
<g id="edge11" class="edge">
<title>Node7&#45;&gt;Node5</title>
<path fill="none" stroke="midnightblue" d="M273.86,-56.32C264.99,-48.34 251.63,-36.31 240.89,-26.65"/>
<polygon fill="midnightblue" stroke="midnightblue" points="243.09,-23.92 233.32,-19.83 238.41,-29.13 243.09,-23.92"/>
</g>
<!-- Node7&#45;&gt;Node6 -->
<g id="edge12" class="edge">
<title>Node7&#45;&gt;Node6</title>
<path fill="none" stroke="midnightblue" d="M290.77,-56.08C297.04,-48.38 306.29,-37.03 313.93,-27.65"/>
<polygon fill="midnightblue" stroke="midnightblue" points="316.77,-29.71 320.37,-19.75 311.34,-25.29 316.77,-29.71"/>
</g>
<!-- Node8 -->
<g id="node8" class="node">
<title>Node8</title>
<g id="a_node8"><a xlink:title=" ">
<polygon fill="white" stroke="#bfbfbf" points="390,-0.5 390,-19.5 427,-19.5 427,-0.5 390,-0.5"/>
<text text-anchor="middle" x="408.5" y="-7.5" font-family="Helvetica,sans-Serif" font-size="10.00">FS.h</text>
</a>
</g>
</g>
<!-- Node7&#45;&gt;Node8 -->
<g id="edge8" class="edge">
<title>Node7&#45;&gt;Node8</title>
<path fill="none" stroke="midnightblue" d="M303.31,-56.44C324.03,-47.49 356.74,-33.36 380.19,-23.23"/>
<polygon fill="midnightblue" stroke="midnightblue" points="381.81,-26.34 389.6,-19.16 379.04,-19.92 381.81,-26.34"/>
</g>
<!-- Node9 -->
<g id="node9" class="node">
<title>Node9</title>
<g id="a_node9"><a xlink:title=" ">
<polygon fill="white" stroke="#bfbfbf" points="445.5,-0.5 445.5,-19.5 503.5,-19.5 503.5,-0.5 445.5,-0.5"/>
<text text-anchor="middle" x="474.5" y="-7.5" font-family="Helvetica,sans-Serif" font-size="10.00">SPIFFS.h</text>
</a>
</g>
</g>
<!-- Node7&#45;&gt;Node9 -->
<g id="edge9" class="edge">
<title>Node7&#45;&gt;Node9</title>
<path fill="none" stroke="midnightblue" d="M313.76,-56.44C346.74,-47.12 399.6,-32.17 435.63,-21.99"/>
<polygon fill="midnightblue" stroke="midnightblue" points="436.65,-25.34 445.32,-19.25 434.74,-18.6 436.65,-25.34"/>
</g>
</g>
</svg>
